C:\Users\jackb\Documents\projects\Masters\adult_control\InputData/emg/ng10203_crop.c3d.mot
nRows=43
nColumns=13

name C:\Users\jackb\Documents\projects\Masters\adult_control\InputData/emg/ng10203_crop.c3d.mot
datacolumns 13
datarows 43
range 2.0750000000 2.0960000000
endheader
time	soleus_r	rect_fem_r	lat_gas_r	med_gas_r	vas_lat_r	vas_med_r	bifemlh_r	semimem_r	tib_ant_r	per_brev_r	ext_dig_r	ext_hal_r
        2.0750000000	        0.2410374893	        0.0366178928	        0.1093464319	        0.1173372415	        0.0132411516	        0.0159348955	        0.0424963378	        0.0347649884	        0.0655664057	        0.1911299775	        0.1753217618	        0.1184436257	
        2.0755000000	        0.2439467222	        0.0364200919	        0.1094519112	        0.1176228980	        0.0133256912	        0.0159249218	        0.0415486442	        0.0347316451	        0.0658430667	        0.1910058489	        0.1762352355	        0.1186133686	
        2.0760000000	        0.2469786853	        0.0362196168	        0.1095508866	        0.1179140120	        0.0134122032	        0.0159134507	        0.0406147418	        0.0346981938	        0.0661155879	        0.1908504468	        0.1770925688	        0.1187633389	
        2.0765000000	        0.2501301616	        0.0360166421	        0.1096441843	        0.1182116467	        0.0135006810	        0.0159004953	        0.0396949715	        0.0346646481	        0.0663838789	        0.1906638502	        0.1778929136	        0.1188932297	
        2.0770000000	        0.2533974250	        0.0358113454	        0.1097326926	        0.1185167852	        0.0135910977	        0.0158860705	        0.0387896573	        0.0346310110	        0.0666478361	        0.1904462933	        0.1786354803	        0.1190027636	
        2.0775000000	        0.2567762749	        0.0356039001	        0.1098172919	        0.1188302759	        0.0136834098	        0.0158701894	        0.0378991066	        0.0345972769	        0.0669073574	        0.1901981714	        0.1793195365	        0.1190917181	
        2.0780000000	        0.2602621159	        0.0353944733	        0.1098987941	        0.1191528181	        0.0137775603	        0.0158528630	        0.0370236104	        0.0345634322	        0.0671623704	        0.1899200061	        0.1799444043	        0.1191599447	
        2.0785000000	        0.2638500371	        0.0351832263	        0.1099779235	        0.1194849765	        0.0138734784	        0.0158341009	        0.0361634416	        0.0345294582	        0.0674128564	        0.1896123840	        0.1805094626	        0.1192073696	
        2.0790000000	        0.2675348386	        0.0349703167	        0.1100553358	        0.1198271944	        0.0139710787	        0.0158139123	        0.0353188540	        0.0344953341	        0.0676588633	        0.1892759082	        0.1810141603	        0.1192339769	
        2.0795000000	        0.2713110185	        0.0347559058	        0.1101316450	        0.1201797967	        0.0140702591	        0.0157923052	        0.0344900833	        0.0344610383	        0.0679005003	        0.1889111953	        0.1814580345	        0.1192397881	
        2.0800000000	        0.2751727760	        0.0345401695	        0.1102074339	        0.1205429834	        0.0141709029	        0.0157692865	        0.0336773482	        0.0344265458	        0.0681379117	        0.1885189040	        0.1818407162	        0.1192248467	
        2.0805000000	        0.2791140416	        0.0343233009	        0.1102832469	        0.1209168220	        0.0142728815	        0.0157448636	        0.0328808513	        0.0343918266	        0.0683712414	        0.1880997687	        0.1821619201	        0.1191892074	
        2.0810000000	        0.2831285007	        0.0341055039	        0.1103595717	        0.1213012533	        0.0143760587	        0.0157190453	        0.0321007780	        0.0343568462	        0.0686006140	        0.1876546232	        0.1824214395	        0.1191329341	
        2.0815000000	        0.2872096087	        0.0338869884	        0.1104368275	        0.1216961054	        0.0144802964	        0.0156918409	        0.0313372978	        0.0343215686	        0.0688261487	        0.1871844139	        0.1826191679	        0.1190561120	
        2.0820000000	        0.2913506190	        0.0336679696	        0.1105153699	        0.1221010974	        0.0145854559	        0.0156632583	        0.0305905677	        0.0342859597	        0.0690479878	        0.1866901930	        0.1827551295	        0.1189588633	
        2.0825000000	        0.2955446153	        0.0334486645	        0.1105955094	        0.1225158319	        0.0146913977	        0.0156333044	        0.0298607359	        0.0342499865	        0.0692663191	        0.1861730899	        0.1828294979	        0.1188413493	
        2.0830000000	        0.2997845515	        0.0332292865	        0.1106775280	        0.1229398055	        0.0147979790	        0.0156019885	        0.0291479410	        0.0342136148	        0.0694813836	        0.1856342611	        0.1828425927	        0.1187037571	
        2.0835000000	        0.3040633209	        0.0330100435	        0.1107616803	        0.1233724443	        0.0149050511	        0.0155693246	        0.0284523083	        0.0341768080	        0.0696934727	        0.1850748376	        0.1827948606	        0.1185462868	
        2.0840000000	        0.3083738499	        0.0327911373	        0.1108481784	        0.1238131382	        0.0150124584	        0.0155353313	        0.0277739470	        0.0341395276	        0.0699029125	        0.1844959006	        0.1826868414	        0.1183691586	
        2.0845000000	        0.3127091674	        0.0325727597	        0.1109371685	        0.1242612489	        0.0151200388	        0.0155000287	        0.0271129510	        0.0341017339	        0.0701100343	        0.1838984983	        0.1825191311	        0.1181726284	
        2.0850000000	        0.3170624150	        0.0323550914	        0.1110287235	        0.1247161039	        0.0152276255	        0.0154634362	        0.0264693996	        0.0340633850	        0.0703151461	        0.1832836745	        0.1822923553	        0.1179569918	
        2.0855000000	        0.3214268048	        0.0321383034	        0.1111228635	        0.1251770075	        0.0153350472	        0.0154255717	        0.0258433565	        0.0340244373	        0.0705185274	        0.1826524797	        0.1820071673	        0.1177225669	
        2.0860000000	        0.3257955928	        0.0319225572	        0.1112195776	        0.1256432572	        0.0154421284	        0.0153864531	        0.0252348678	        0.0339848473	        0.0707204493	        0.1820059670	        0.1816642654	        0.1174696710	
        2.0865000000	        0.3301621347	        0.0317080028	        0.1113188207	        0.1261141354	        0.0155486902	        0.0153460977	        0.0246439624	        0.0339445748	        0.0709211933	        0.1813451831	        0.1812644142	        0.1171986073	
        2.0870000000	        0.3345199941	        0.0314947786	        0.1114205004	        0.1265888858	        0.0156545498	        0.0153045211	        0.0240706524	        0.0339035848	        0.0711210544	        0.1806711616	        0.1808084592	        0.1169096637	
        2.0875000000	        0.3388629896	        0.0312830117	        0.1115244858	        0.1270667110	        0.0157595197	        0.0152617355	        0.0235149346	        0.0338618456	        0.0713203325	        0.1799849197	        0.1802973299	        0.1166031207	
        2.0880000000	        0.3431851357	        0.0310728176	        0.1116306517	        0.1275468080	        0.0158634097	        0.0152177501	        0.0229767921	        0.0338193247	        0.0715193182	        0.1792874570	        0.1797320287	        0.1162792656	
        2.0885000000	        0.3474805622	        0.0308643011	        0.1117389388	        0.1280284437	        0.0159660319	        0.0151725707	        0.0224561988	        0.0337759867	        0.0717182727	        0.1785797505	        0.1791136046	        0.1159384049	
        2.0890000000	        0.3517435199	        0.0306575618	        0.1118493909	        0.1285110258	        0.0160672053	        0.0151262010	        0.0219531240	        0.0337317945	        0.0719174073	        0.1778627446	        0.1784431277	        0.1155808701	
        2.0895000000	        0.3559684414	        0.0304527001	        0.1119621409	        0.1289941077	        0.0161667554	        0.0150786442	        0.0214675355	        0.0336867153	        0.0721168756	        0.1771373338	        0.1777216809	        0.1152070154	
        2.0900000000	        0.3601499463	        0.0302498215	        0.1120773693	        0.1294773196	        0.0162645131	        0.0150299057	        0.0209993990	        0.0336407325	        0.0723167852	        0.1764043453	        0.1769503626	        0.1148172103	
        2.0905000000	        0.3642827675	        0.0300490357	        0.1121953069	        0.1299602928	        0.0163603155	        0.0149799957	        0.0205486772	        0.0335938591	        0.0725172124	        0.1756645303	        0.1761302827	        0.1144118304	
        2.0910000000	        0.3683616911	        0.0298504495	        0.1123162931	        0.1304426491	        0.0164540070	        0.0149289288	        0.0201153266	        0.0335461428	        0.0727182001	        0.1749185719	        0.1752625517	        0.1139912501	
        2.0915000000	        0.3723815728	        0.0296541593	        0.1124408305	        0.1309240537	        0.0165454401	        0.0148767215	        0.0196992942	        0.0334976634	        0.0729197547	        0.1741670940	        0.1743482738	        0.1135558413	
        2.0920000000	        0.3763373835	        0.0294602482	        0.1125695951	        0.1314042781	        0.0166344798	        0.0148233896	        0.0193005155	        0.0334485228	        0.0731218643	        0.1734106656	        0.1733885467	        0.1131059829	
        2.0925000000	        0.3802242210	        0.0292687910	        0.1127034129	        0.1318832385	        0.0167210088	        0.0147689483	        0.0189189141	        0.0333988344	        0.0733245263	        0.1726498027	        0.1723844633	        0.1126420660	
        2.0930000000	        0.3840372829	        0.0290798667	        0.1128432173	        0.1323610016	        0.0168049293	        0.0147134134	        0.0185544011	        0.0333487173	        0.0735277592	        0.1718849906	        0.1713371168	        0.1121644891	
        2.0935000000	        0.3877718273	        0.0288935720	        0.1129899889	        0.1328377562	        0.0168861557	        0.0146568029	        0.0182068745	        0.0332982933	        0.0737315956	        0.1711167403	        0.1702476249	        0.1116736591	
        2.0940000000	        0.3914231480	        0.0287100242	        0.1131446837	        0.1333137472	        0.0169646052	        0.0145991362	        0.0178762170	        0.0332476840	        0.0739360651	        0.1703456679	        0.1691171800	        0.1111700112	
        2.0945000000	        0.3949865724	        0.0285293495	        0.1133081973	        0.1337892121	        0.0170401921	        0.0145404343	        0.0175622946	        0.0331970045	        0.0741411778	        0.1695725607	        0.1679471146	        0.1106540369	
        2.0950000000	        0.3984574733	        0.0283516675	        0.1134814269	        0.1342643965	        0.0171128269	        0.0144807200	        0.0172649562	        0.0331463568	        0.0743469106	        0.1687983905	        0.1667389534	        0.1101262975	
        2.0955000000	        0.4018312898	        0.0281770836	        0.1136654198	        0.1347396686	        0.0171824168	        0.0144200214	        0.0169840356	        0.0330958278	        0.0745531969	        0.1680242553	        0.1654944267	        0.1095874169	
        2.0960000000	        0.4051035584	        0.0280056902	        0.1138615186	        0.1352156605	        0.0172488670	        0.0143583740	        0.0167193558	        0.0330454918	        0.0747599263	        0.1672512807	        0.1642154548	        0.1090380628	
